<svg width="24" height="24" viewBox="0 0 24 24" fill="none" xmlns="http://www.w3.org/2000/svg">
<mask id="mask0_212_1115" style="mask-type:alpha" maskUnits="userSpaceOnUse" x="0" y="0" width="24" height="24">
<rect width="24" height="24" fill="#D9D9D9" style="fill:#D9D9D9;fill:color(display-p3 0.8510 0.8510 0.8510);fill-opacity:1;"/>
</mask>
<g mask="url(#mask0_212_1115)">
<path d="M3.18449 12L10.7172 19.5328C10.9159 19.7314 11.0127 19.9653 11.0077 20.2345C11.0026 20.5038 10.9007 20.7378 10.702 20.9365C10.5032 21.1352 10.2692 21.2345 9.99999 21.2345C9.73082 21.2345 9.49682 21.1352 9.29799 20.9365L1.62699 13.2807C1.44616 13.0999 1.31215 12.8973 1.22499 12.673C1.13782 12.4487 1.09424 12.2243 1.09424 12C1.09424 11.7757 1.13782 11.5513 1.22499 11.327C1.31215 11.1027 1.44616 10.9001 1.62699 10.7192L9.29799 3.048C9.49682 2.84933 9.73341 2.75258 10.0077 2.75775C10.2821 2.76292 10.5186 2.86483 10.7172 3.0635C10.9159 3.26217 11.0152 3.49617 11.0152 3.7655C11.0152 4.03467 10.9159 4.26858 10.7172 4.46725L3.18449 12Z" fill="white" style="fill:white;fill-opacity:1;"/>
</g>
</svg>
