<svg width="11" height="20" viewBox="0 0 11 20" fill="none" xmlns="http://www.w3.org/2000/svg">
<path d="M2.18449 10L9.71724 17.5328C9.91591 17.7314 10.0127 17.9653 10.0077 18.2345C10.0026 18.5038 9.90066 18.7378 9.70199 18.9365C9.50316 19.1352 9.26916 19.2345 8.99999 19.2345C8.73082 19.2345 8.49682 19.1352 8.29799 18.9365L0.626988 11.2807C0.446155 11.0999 0.312155 10.8973 0.224988 10.673C0.137822 10.4487 0.0942383 10.2243 0.0942383 10C0.0942383 9.77567 0.137822 9.55133 0.224988 9.327C0.312155 9.10266 0.446155 8.90008 0.626988 8.71925L8.29799 1.048C8.49682 0.849332 8.73341 0.752583 9.00774 0.75775C9.28207 0.762916 9.51857 0.864832 9.71724 1.0635C9.91591 1.26217 10.0152 1.49617 10.0152 1.7655C10.0152 2.03467 9.91591 2.26858 9.71724 2.46725L2.18449 10Z" fill="#94A3B8" style="fill:#94A3B8;fill:color(display-p3 0.5804 0.6392 0.7216);fill-opacity:1;"/>
</svg>
