<svg width="6" height="10" viewBox="0 0 6 10" fill="none" xmlns="http://www.w3.org/2000/svg">
<path d="M4.24935 4.99994L1.0247 1.77548C0.915183 1.66583 0.859106 1.52802 0.856467 1.36203C0.85396 1.19618 0.910037 1.05585 1.0247 0.941063C1.13949 0.826403 1.27856 0.769073 1.4419 0.769073C1.60525 0.769073 1.74432 0.826403 1.85911 0.941063L5.41706 4.49901C5.49108 4.57316 5.54333 4.65134 5.57381 4.73354C5.60429 4.81574 5.61953 4.90454 5.61953 4.99994C5.61953 5.09533 5.60429 5.18413 5.57381 5.26633C5.54333 5.34854 5.49108 5.42671 5.41706 5.50086L1.85911 9.05881C1.74947 9.16833 1.61165 9.2244 1.44567 9.22704C1.27981 9.22955 1.13949 9.17347 1.0247 9.05881C0.910037 8.94402 0.852707 8.80495 0.852707 8.6416C0.852707 8.47826 0.910037 8.33919 1.0247 8.2244L4.24935 4.99994Z" fill="#475569" style="fill:#475569;fill:color(display-p3 0.2784 0.3333 0.4118);fill-opacity:1;"/>
</svg>
