<svg width="18" height="20" viewBox="0 0 18 20" fill="none" xmlns="http://www.w3.org/2000/svg">
<path d="M7.89225 19.5C7.55125 19.5 7.25675 19.3868 7.00875 19.1605C6.76059 18.9343 6.60959 18.6558 6.55575 18.325L6.3115 16.4538C6.04367 16.3641 5.769 16.2385 5.4875 16.077C5.20617 15.9153 4.95459 15.7422 4.73275 15.5577L3 16.2943C2.68583 16.4328 2.37017 16.4462 2.053 16.3345C1.73567 16.223 1.48917 16.0205 1.3135 15.727L0.186502 13.773C0.0108351 13.4795 -0.0397482 13.1689 0.0347518 12.8413C0.109085 12.5138 0.279585 12.2436 0.546252 12.0308L2.04425 10.9058C2.02125 10.7571 2.00492 10.6077 1.99525 10.4578C1.98558 10.3078 1.98075 10.1583 1.98075 10.0095C1.98075 9.86733 1.98558 9.72283 1.99525 9.576C2.00492 9.42917 2.02125 9.26858 2.04425 9.09425L0.546252 7.96925C0.279585 7.75642 0.110669 7.48458 0.0395018 7.15375C-0.0316648 6.82308 0.0205851 6.51092 0.196252 6.21725L1.3135 4.29225C1.48917 4.00508 1.73567 3.80417 2.053 3.6895C2.37017 3.57467 2.68583 3.5865 3 3.725L4.723 4.452C4.96417 4.261 5.22159 4.08633 5.49525 3.928C5.76892 3.76967 6.03783 3.64242 6.302 3.54625L6.55575 1.675C6.60959 1.34417 6.76059 1.06567 7.00875 0.8395C7.25675 0.613167 7.55125 0.5 7.89225 0.5H10.1078C10.4488 0.5 10.7433 0.613167 10.9913 0.8395C11.2394 1.06567 11.3904 1.34417 11.4443 1.675L11.6885 3.55575C11.9885 3.66475 12.2599 3.792 12.5028 3.9375C12.7458 4.083 12.991 4.2545 13.2385 4.452L15.0098 3.725C15.3238 3.5865 15.6394 3.57467 15.9568 3.6895C16.2741 3.80417 16.5205 4.00508 16.696 4.29225L17.8135 6.227C17.9892 6.5205 18.0398 6.83108 17.9653 7.15875C17.8909 7.48625 17.7204 7.75642 17.4538 7.96925L15.9173 9.123C15.9531 9.2845 15.9727 9.4355 15.976 9.576C15.9792 9.71633 15.9808 9.85767 15.9808 10C15.9808 10.1358 15.9775 10.274 15.971 10.4145C15.9647 10.5548 15.9417 10.7154 15.902 10.8963L17.4095 12.0308C17.6762 12.2436 17.8483 12.5138 17.926 12.8413C18.0035 13.1689 17.9544 13.4795 17.7788 13.773L16.646 15.7172C16.4705 16.0109 16.2225 16.2135 15.902 16.325C15.5815 16.4365 15.2642 16.423 14.95 16.2845L13.2385 15.548C12.991 15.7455 12.7384 15.9202 12.4808 16.072C12.2231 16.224 11.959 16.3481 11.6885 16.4443L11.4443 18.325C11.3904 18.6558 11.2394 18.9343 10.9913 19.1605C10.7433 19.3868 10.4488 19.5 10.1078 19.5H7.89225ZM8 18H9.9655L10.325 15.3212C10.8353 15.1879 11.3017 14.9985 11.724 14.753C12.1465 14.5073 12.5539 14.1916 12.9463 13.8057L15.4308 14.85L16.4155 13.15L14.2463 11.5155C14.3296 11.2565 14.3863 11.0026 14.4163 10.7537C14.4464 10.5051 14.4615 10.2538 14.4615 10C14.4615 9.73967 14.4464 9.48842 14.4163 9.24625C14.3863 9.00392 14.3296 8.75642 14.2463 8.50375L16.4345 6.85L15.45 5.15L12.9365 6.2095C12.6018 5.85183 12.2009 5.53583 11.7338 5.2615C11.2664 4.98717 10.7937 4.79292 10.3155 4.67875L10 2H8.0155L7.6845 4.66925C7.17434 4.78975 6.70325 4.97433 6.27125 5.223C5.83909 5.47183 5.42684 5.79233 5.0345 6.1845L2.55 5.15L1.5655 6.85L3.725 8.4595C3.64167 8.69683 3.58334 8.94367 3.55 9.2C3.51667 9.45633 3.5 9.72617 3.5 10.0095C3.5 10.2698 3.51667 10.525 3.55 10.775C3.58334 11.025 3.6385 11.2718 3.7155 11.5155L1.5655 13.15L2.55 14.85L5.025 13.8C5.4045 14.1897 5.81025 14.5089 6.24225 14.7578C6.67442 15.0064 7.152 15.1974 7.675 15.3307L8 18ZM9.0115 13C9.8435 13 10.5515 12.708 11.1355 12.124C11.7195 11.54 12.0115 10.832 12.0115 10C12.0115 9.168 11.7195 8.46 11.1355 7.876C10.5515 7.292 9.8435 7 9.0115 7C8.16917 7 7.45858 7.292 6.87975 7.876C6.30092 8.46 6.0115 9.168 6.0115 10C6.0115 10.832 6.30092 11.54 6.87975 12.124C7.45858 12.708 8.16917 13 9.0115 13Z" fill="#94A3B8" style="fill:#94A3B8;fill:color(display-p3 0.5804 0.6392 0.7216);fill-opacity:1;"/>
</svg>
