<svg width="16" height="16" viewBox="0 0 16 16" fill="none" xmlns="http://www.w3.org/2000/svg">
<mask id="mask0_212_393" style="mask-type:alpha" maskUnits="userSpaceOnUse" x="0" y="0" width="16" height="16">
<rect width="16" height="16" fill="#D9D9D9" style="fill:#D9D9D9;fill:color(display-p3 0.8510 0.8510 0.8510);fill-opacity:1;"/>
</mask>
<g mask="url(#mask0_212_393)">
<path d="M3.00054 9.66667C2.53476 9.66667 2.14054 9.50533 1.81787 9.18267C1.4952 8.86 1.33387 8.46578 1.33387 8C1.33387 7.53422 1.4952 7.14 1.81787 6.81733C2.14054 6.49467 2.53476 6.33333 3.00054 6.33333V4.87183C3.00054 4.54039 3.11854 4.25667 3.35454 4.02067C3.59054 3.78467 3.87426 3.66667 4.2057 3.66667H6.33387C6.33387 3.20089 6.4952 2.80667 6.81787 2.484C7.14054 2.16133 7.53476 2 8.00054 2C8.46631 2 8.86054 2.16133 9.1832 2.484C9.50587 2.80667 9.6672 3.20089 9.6672 3.66667H11.7954C12.1268 3.66667 12.4105 3.78467 12.6465 4.02067C12.8825 4.25667 13.0005 4.54039 13.0005 4.87183V6.33333C13.4663 6.33333 13.8605 6.49467 14.1832 6.81733C14.5059 7.14 14.6672 7.53422 14.6672 8C14.6672 8.46578 14.5059 8.86 14.1832 9.18267C13.8605 9.50533 13.4663 9.66667 13.0005 9.66667V12.4615C13.0005 12.7929 12.8825 13.0767 12.6465 13.3127C12.4105 13.5487 12.1268 13.6667 11.7954 13.6667H4.2057C3.87426 13.6667 3.59054 13.5487 3.35454 13.3127C3.11854 13.0767 3.00054 12.7929 3.00054 12.4615V9.66667ZM5.9997 8.5C6.23104 8.5 6.42787 8.41905 6.5902 8.25717C6.75265 8.09528 6.83387 7.89872 6.83387 7.6675C6.83387 7.43617 6.75292 7.23933 6.59104 7.077C6.42915 6.91456 6.23259 6.83333 6.00137 6.83333C5.77004 6.83333 5.5732 6.91428 5.41087 7.07617C5.24843 7.23806 5.1672 7.43461 5.1672 7.66583C5.1672 7.89717 5.24815 8.094 5.41004 8.25633C5.57193 8.41878 5.76848 8.5 5.9997 8.5ZM9.9997 8.5C10.231 8.5 10.4279 8.41905 10.5902 8.25717C10.7526 8.09528 10.8339 7.89872 10.8339 7.6675C10.8339 7.43617 10.7529 7.23933 10.591 7.077C10.4291 6.91456 10.2326 6.83333 10.0014 6.83333C9.77004 6.83333 9.5732 6.91428 9.41087 7.07617C9.24843 7.23806 9.1672 7.43461 9.1672 7.66583C9.1672 7.89717 9.24815 8.094 9.41004 8.25633C9.57193 8.41878 9.76848 8.5 9.9997 8.5ZM6.00054 11.1667H10.0005C10.1422 11.1667 10.2609 11.1187 10.3567 11.0228C10.4526 10.9269 10.5005 10.8082 10.5005 10.6665C10.5005 10.5247 10.4526 10.406 10.3567 10.3103C10.2609 10.2146 10.1422 10.1667 10.0005 10.1667H6.00054C5.85887 10.1667 5.74015 10.2146 5.64437 10.3105C5.54848 10.4064 5.50054 10.5252 5.50054 10.6668C5.50054 10.8086 5.54848 10.9273 5.64437 11.023C5.74015 11.1188 5.85887 11.1667 6.00054 11.1667ZM4.2057 12.6667H11.7954C11.8553 12.6667 11.9044 12.6474 11.9429 12.609C11.9813 12.5706 12.0005 12.5214 12.0005 12.4615V4.87183C12.0005 4.81194 11.9813 4.76278 11.9429 4.72433C11.9044 4.68589 11.8553 4.66667 11.7954 4.66667H4.2057C4.14581 4.66667 4.09665 4.68589 4.0582 4.72433C4.01976 4.76278 4.00054 4.81194 4.00054 4.87183V12.4615C4.00054 12.5214 4.01976 12.5706 4.0582 12.609C4.09665 12.6474 4.14581 12.6667 4.2057 12.6667Z" fill="#64748B" style="fill:#64748B;fill:color(display-p3 0.3922 0.4549 0.5451);fill-opacity:1;"/>
</g>
</svg>
