<svg width="313" height="162" viewBox="0 0 313 162" fill="none" xmlns="http://www.w3.org/2000/svg">
<g clip-path="url(#clip0_212_1274)">
<mask id="path-1-outside-1_212_1274" maskUnits="userSpaceOnUse" x="13.7622" y="43.9183" width="79.6256" height="76.736" fill="black">
<rect fill="white" x="13.7622" y="43.9183" width="79.6256" height="76.736"/>
<path d="M80.0376 117.844L76.3246 116.705L75.3975 114.489L68.8935 114.425L62.2014 112.372L60.7647 109.957L54.4322 109.988L47.8944 107.982C43.3528 106.593 42.0071 100.779 45.4917 97.5381L70.0963 74.6274C73.5809 71.3861 79.2834 73.1231 80.3394 77.7786L82.0417 85.204L81.55 91.1672L83.744 92.6293L85.4843 100.221L84.9399 105.935L87.0952 107.247L87.8525 110.55C88.9349 115.181 84.5791 119.233 80.0376 117.844Z"/>
<path d="M73.4762 105.241C77.375 101.856 80.7408 97.7317 83.7627 92.7111L82.05 85.2404C78.5349 92.2505 74.6782 97.446 70.1343 101.391C65.7552 105.194 60.6321 107.927 54.3386 109.959L62.2337 112.381C66.3883 110.498 70.1071 108.166 73.4762 105.241Z"/>
<path d="M82.1669 112.784C84.0308 111.163 85.649 109.331 87.0989 107.263L85.4578 100.105C83.5302 103.837 81.4197 106.678 78.8221 108.937C76.2307 111.19 73.0428 112.961 68.8331 114.406L76.3738 116.72C78.5136 115.592 80.4303 114.294 82.1669 112.784Z"/>
<path d="M44.6052 105.822C41.1675 102.126 45.9693 92.0957 55.3144 83.4033C64.6596 74.7108 74.9852 70.6457 78.4229 74.3415C81.8606 78.0373 77.0589 88.0677 67.7138 96.7601C58.3686 105.453 48.0184 109.491 44.6052 105.822Z"/>
<path d="M65.4109 59.5853C62.0378 65.3816 61.1557 72.1354 62.886 78.6011C64.3447 84.113 67.5918 88.8479 72.1133 92.2002C73.498 90.5922 74.7044 88.9777 75.7306 87.4077C72.2769 84.8592 69.8055 81.2494 68.6819 77.0506C67.3549 72.1301 68.0252 67.0013 70.5822 62.604C71.4255 61.1549 70.9304 59.3258 69.5059 58.509C68.0568 57.6657 66.2277 58.1607 65.4109 59.5853Z"/>
<path d="M37.6883 82.6703C33.0091 78.6909 26.7896 77.69 21.3389 79.5012C19.9383 79.9666 18.4256 79.2084 17.9602 77.8078C17.4948 76.4072 18.253 74.8945 19.6536 74.4291C26.8034 72.0534 34.9902 73.3595 41.1509 78.5989C42.2752 79.555 42.4115 81.2416 41.4553 82.3659C40.4992 83.4902 38.8126 83.6265 37.6883 82.6703Z"/>
<path d="M79.4549 66.2669C77.8227 66.2078 76.5475 64.8368 76.6065 63.2046C76.6656 61.5725 78.0366 60.2972 79.6688 60.3563C81.3009 60.4153 82.5762 61.7863 82.5171 63.4185C82.4581 65.0507 81.0871 66.326 79.4549 66.2669Z"/>
<path d="M28.3024 61.4567C28.2433 63.0889 29.5186 64.4599 31.1507 64.519C32.7829 64.5781 34.1539 63.3028 34.213 61.6706C34.272 60.0385 32.9968 58.6674 31.3646 58.6084C29.7324 58.5493 28.3614 59.8246 28.3024 61.4567Z"/>
<path d="M63.4739 51.0712C63.425 52.422 64.4804 53.5566 65.8312 53.6055C67.1819 53.6544 68.3166 52.599 68.3655 51.2482C68.4143 49.8974 67.3589 48.7628 66.0082 48.7139C64.6574 48.6651 63.5228 49.7204 63.4739 51.0712Z"/>
<path d="M28.4942 101.974C28.4448 103.339 29.5112 104.485 30.8761 104.535C32.2409 104.584 33.3873 103.518 33.4367 102.153C33.4861 100.788 32.4197 99.6414 31.0549 99.592C29.6901 99.5426 28.5436 100.609 28.4942 101.974Z"/>
<path d="M40.1828 50.3811C40.6033 50.0392 41.1212 49.8284 41.6826 49.8232C43.0611 49.7965 44.1952 50.8835 44.2474 52.2629C44.3243 55.0718 46.0771 60.2118 46.7542 61.9455C46.7537 61.9582 46.7596 61.9712 46.7655 61.9841C46.7714 61.9971 46.7773 62.0101 46.7769 62.0228C46.9012 62.3642 47.0351 62.7013 47.1788 63.0335C47.4505 62.7174 47.7483 62.4299 48.0725 62.1718C48.8089 61.5606 49.6926 61.1079 50.7237 60.8136L50.8011 60.7909C54.2819 59.7689 57.9597 61.7642 58.9808 65.2706C59.4804 66.9723 59.2885 68.7511 58.4416 70.3021C57.5946 71.8531 56.202 72.9761 54.5002 73.4758C54.3174 73.5294 54.133 73.5609 53.9498 73.5717C52.6499 73.8727 51.4038 73.8397 50.2162 73.4743C50.2761 73.8267 50.3479 74.1778 50.4315 74.5275C50.7403 75.8652 49.9007 77.2124 48.563 77.5211C47.2253 77.8299 45.8781 76.9903 45.5694 75.6526C45.0705 73.5565 44.8982 71.434 45.0519 69.3015C43.7866 67.5928 42.7937 65.7251 42.0728 63.7148L42.0386 63.6227C41.6075 62.4627 39.3461 56.3766 39.2438 52.3625C39.2469 51.5718 39.6048 50.8449 40.1828 50.3811ZM52.0818 65.5821C51.3717 65.7906 50.6381 66.1582 50.2723 67.7517C51.4849 68.9622 52.2946 68.8636 53.0166 68.6517C53.1034 68.6262 53.1906 68.6057 53.2778 68.5901C53.6069 68.4496 53.8771 68.1904 54.0397 67.8724C54.2573 67.4976 54.2985 67.0654 54.1604 66.6523C53.9106 65.8014 53.01 65.3096 52.1591 65.5594L52.0818 65.5821Z"/>
<path d="M47.4395 86.7152C38.8395 83.9805 29.7046 84.7469 21.6973 88.896C20.2147 89.6841 19.6397 91.4746 20.3779 92.9298C21.1406 94.4115 22.9565 94.9874 24.4382 94.2247C31.0147 90.8403 38.5381 90.1941 45.5997 92.4394C51.4259 94.2829 56.3449 97.9303 59.8148 102.852C61.4076 101.838 63.0569 100.673 64.6862 99.3546C60.488 93.4119 54.5011 88.9605 47.4395 86.7152Z"/>
<path d="M51.7412 83.8742C51.6826 85.4923 52.9469 86.8515 54.565 86.9101C56.1831 86.9686 57.5423 85.7044 57.6008 84.0863C57.6594 82.4681 56.3951 81.109 54.777 81.0504C53.1589 80.9918 51.7997 82.2561 51.7412 83.8742Z"/>
</mask>
<path d="M80.0376 117.844L76.3246 116.705L75.3975 114.489L68.8935 114.425L62.2014 112.372L60.7647 109.957L54.4322 109.988L47.8944 107.982C43.3528 106.593 42.0071 100.779 45.4917 97.5381L70.0963 74.6274C73.5809 71.3861 79.2834 73.1231 80.3394 77.7786L82.0417 85.204L81.55 91.1672L83.744 92.6293L85.4843 100.221L84.9399 105.935L87.0952 107.247L87.8525 110.55C88.9349 115.181 84.5791 119.233 80.0376 117.844Z" stroke="white" style="stroke:white;stroke-opacity:1;" stroke-width="4.1306" mask="url(#path-1-outside-1_212_1274)"/>
<path d="M73.4762 105.241C77.375 101.856 80.7408 97.7317 83.7627 92.7111L82.05 85.2404C78.5349 92.2505 74.6782 97.446 70.1343 101.391C65.7552 105.194 60.6321 107.927 54.3386 109.959L62.2337 112.381C66.3883 110.498 70.1071 108.166 73.4762 105.241Z" stroke="white" style="stroke:white;stroke-opacity:1;" stroke-width="4.1306" mask="url(#path-1-outside-1_212_1274)"/>
<path d="M82.1669 112.784C84.0308 111.163 85.649 109.331 87.0989 107.263L85.4578 100.105C83.5302 103.837 81.4197 106.678 78.8221 108.937C76.2307 111.19 73.0428 112.961 68.8331 114.406L76.3738 116.72C78.5136 115.592 80.4303 114.294 82.1669 112.784Z" stroke="white" style="stroke:white;stroke-opacity:1;" stroke-width="4.1306" mask="url(#path-1-outside-1_212_1274)"/>
<path d="M44.6052 105.822C41.1675 102.126 45.9693 92.0957 55.3144 83.4033C64.6596 74.7108 74.9852 70.6457 78.4229 74.3415C81.8606 78.0373 77.0589 88.0677 67.7138 96.7601C58.3686 105.453 48.0184 109.491 44.6052 105.822Z" stroke="white" style="stroke:white;stroke-opacity:1;" stroke-width="4.1306" mask="url(#path-1-outside-1_212_1274)"/>
<path d="M65.4109 59.5853C62.0378 65.3816 61.1557 72.1354 62.886 78.6011C64.3447 84.113 67.5918 88.8479 72.1133 92.2002C73.498 90.5922 74.7044 88.9777 75.7306 87.4077C72.2769 84.8592 69.8055 81.2494 68.6819 77.0506C67.3549 72.1301 68.0252 67.0013 70.5822 62.604C71.4255 61.1549 70.9304 59.3258 69.5059 58.509C68.0568 57.6657 66.2277 58.1607 65.4109 59.5853Z" stroke="white" style="stroke:white;stroke-opacity:1;" stroke-width="4.1306" mask="url(#path-1-outside-1_212_1274)"/>
<path d="M37.6883 82.6703C33.0091 78.6909 26.7896 77.69 21.3389 79.5012C19.9383 79.9666 18.4256 79.2084 17.9602 77.8078C17.4948 76.4072 18.253 74.8945 19.6536 74.4291C26.8034 72.0534 34.9902 73.3595 41.1509 78.5989C42.2752 79.555 42.4115 81.2416 41.4553 82.3659C40.4992 83.4902 38.8126 83.6265 37.6883 82.6703Z" stroke="white" style="stroke:white;stroke-opacity:1;" stroke-width="4.1306" mask="url(#path-1-outside-1_212_1274)"/>
<path d="M79.4549 66.2669C77.8227 66.2078 76.5475 64.8368 76.6065 63.2046C76.6656 61.5725 78.0366 60.2972 79.6688 60.3563C81.3009 60.4153 82.5762 61.7863 82.5171 63.4185C82.4581 65.0507 81.0871 66.326 79.4549 66.2669Z" stroke="white" style="stroke:white;stroke-opacity:1;" stroke-width="4.1306" mask="url(#path-1-outside-1_212_1274)"/>
<path d="M28.3024 61.4567C28.2433 63.0889 29.5186 64.4599 31.1507 64.519C32.7829 64.5781 34.1539 63.3028 34.213 61.6706C34.272 60.0385 32.9968 58.6674 31.3646 58.6084C29.7324 58.5493 28.3614 59.8246 28.3024 61.4567Z" stroke="white" style="stroke:white;stroke-opacity:1;" stroke-width="4.1306" mask="url(#path-1-outside-1_212_1274)"/>
<path d="M63.4739 51.0712C63.425 52.422 64.4804 53.5566 65.8312 53.6055C67.1819 53.6544 68.3166 52.599 68.3655 51.2482C68.4143 49.8974 67.3589 48.7628 66.0082 48.7139C64.6574 48.6651 63.5228 49.7204 63.4739 51.0712Z" stroke="white" style="stroke:white;stroke-opacity:1;" stroke-width="4.1306" mask="url(#path-1-outside-1_212_1274)"/>
<path d="M28.4942 101.974C28.4448 103.339 29.5112 104.485 30.8761 104.535C32.2409 104.584 33.3873 103.518 33.4367 102.153C33.4861 100.788 32.4197 99.6414 31.0549 99.592C29.6901 99.5426 28.5436 100.609 28.4942 101.974Z" stroke="white" style="stroke:white;stroke-opacity:1;" stroke-width="4.1306" mask="url(#path-1-outside-1_212_1274)"/>
<path d="M40.1828 50.3811C40.6033 50.0392 41.1212 49.8284 41.6826 49.8232C43.0611 49.7965 44.1952 50.8835 44.2474 52.2629C44.3243 55.0718 46.0771 60.2118 46.7542 61.9455C46.7537 61.9582 46.7596 61.9712 46.7655 61.9841C46.7714 61.9971 46.7773 62.0101 46.7769 62.0228C46.9012 62.3642 47.0351 62.7013 47.1788 63.0335C47.4505 62.7174 47.7483 62.4299 48.0725 62.1718C48.8089 61.5606 49.6926 61.1079 50.7237 60.8136L50.8011 60.7909C54.2819 59.7689 57.9597 61.7642 58.9808 65.2706C59.4804 66.9723 59.2885 68.7511 58.4416 70.3021C57.5946 71.8531 56.202 72.9761 54.5002 73.4758C54.3174 73.5294 54.133 73.5609 53.9498 73.5717C52.6499 73.8727 51.4038 73.8397 50.2162 73.4743C50.2761 73.8267 50.3479 74.1778 50.4315 74.5275C50.7403 75.8652 49.9007 77.2124 48.563 77.5211C47.2253 77.8299 45.8781 76.9903 45.5694 75.6526C45.0705 73.5565 44.8982 71.434 45.0519 69.3015C43.7866 67.5928 42.7937 65.7251 42.0728 63.7148L42.0386 63.6227C41.6075 62.4627 39.3461 56.3766 39.2438 52.3625C39.2469 51.5718 39.6048 50.8449 40.1828 50.3811ZM52.0818 65.5821C51.3717 65.7906 50.6381 66.1582 50.2723 67.7517C51.4849 68.9622 52.2946 68.8636 53.0166 68.6517C53.1034 68.6262 53.1906 68.6057 53.2778 68.5901C53.6069 68.4496 53.8771 68.1904 54.0397 67.8724C54.2573 67.4976 54.2985 67.0654 54.1604 66.6523C53.9106 65.8014 53.01 65.3096 52.1591 65.5594L52.0818 65.5821Z" stroke="white" style="stroke:white;stroke-opacity:1;" stroke-width="4.1306" mask="url(#path-1-outside-1_212_1274)"/>
<path d="M47.4395 86.7152C38.8395 83.9805 29.7046 84.7469 21.6973 88.896C20.2147 89.6841 19.6397 91.4746 20.3779 92.9298C21.1406 94.4115 22.9565 94.9874 24.4382 94.2247C31.0147 90.8403 38.5381 90.1941 45.5997 92.4394C51.4259 94.2829 56.3449 97.9303 59.8148 102.852C61.4076 101.838 63.0569 100.673 64.6862 99.3546C60.488 93.4119 54.5011 88.9605 47.4395 86.7152Z" stroke="white" style="stroke:white;stroke-opacity:1;" stroke-width="4.1306" mask="url(#path-1-outside-1_212_1274)"/>
<path d="M51.7412 83.8742C51.6826 85.4923 52.9469 86.8515 54.565 86.9101C56.1831 86.9686 57.5423 85.7044 57.6008 84.0863C57.6594 82.4681 56.3951 81.109 54.777 81.0504C53.1589 80.9918 51.7997 82.2561 51.7412 83.8742Z" stroke="white" style="stroke:white;stroke-opacity:1;" stroke-width="4.1306" mask="url(#path-1-outside-1_212_1274)"/>
<path d="M80.0375 117.844L76.3245 116.705L75.3974 114.489L68.8934 114.425L62.2013 112.372L60.7646 109.957L54.4322 109.988L47.8944 107.982C43.3528 106.593 42.007 100.779 45.4917 97.5381L70.0962 74.6274C73.5808 71.3861 79.2833 73.1231 80.3393 77.7786L82.0416 85.204L81.5499 91.1672L83.7439 92.6293L85.4843 100.221L84.9398 105.935L87.0951 107.247L87.8524 110.55C88.9349 115.181 84.5791 119.233 80.0375 117.844Z" fill="#F9C23C" style="fill:#F9C23C;fill:color(display-p3 0.9765 0.7608 0.2353);fill-opacity:1;"/>
<path d="M73.4765 105.241C77.3753 101.856 80.7411 97.7319 83.7629 92.7113L82.0502 85.2406C78.5352 92.2507 74.6785 97.4462 70.1346 101.392C65.7555 105.194 60.6324 107.927 54.3389 109.959L62.234 112.382C66.3885 110.498 70.1074 108.167 73.4765 105.241Z" fill="#3F5FFF" style="fill:#3F5FFF;fill:color(display-p3 0.2471 0.3725 1.0000);fill-opacity:1;"/>
<path d="M82.1671 112.784C84.0311 111.163 85.6493 109.331 87.0992 107.264L85.458 100.105C83.5305 103.837 81.4199 106.678 78.8224 108.937C76.231 111.19 73.043 112.961 68.8333 114.406L76.3741 116.72C78.5138 115.592 80.4306 114.294 82.1671 112.784Z" fill="#3F5FFF" style="fill:#3F5FFF;fill:color(display-p3 0.2471 0.3725 1.0000);fill-opacity:1;"/>
<path d="M44.6048 105.822C41.1671 102.126 45.9689 92.0961 55.314 83.4036C64.6592 74.7112 74.9848 70.646 78.4225 74.3419C81.8602 78.0377 77.0585 88.068 67.7134 96.7605C58.3682 105.453 48.018 109.492 44.6048 105.822Z" fill="#6D4534" style="fill:#6D4534;fill:color(display-p3 0.4275 0.2706 0.2039);fill-opacity:1;"/>
<path d="M65.411 59.5853C62.038 65.3817 61.1558 72.1355 62.8862 78.6011C64.3449 84.1131 67.5919 88.8479 72.1135 92.2003C73.4982 90.5923 74.7046 88.9778 75.7308 87.4077C72.2771 84.8593 69.8056 81.2495 68.6821 77.0506C67.355 72.1302 68.0253 67.0014 70.5824 62.6041C71.4256 61.155 70.9306 59.3259 69.5061 58.509C68.057 57.6658 66.2278 58.1608 65.411 59.5853Z" fill="#F70A8D" style="fill:#F70A8D;fill:color(display-p3 0.9686 0.0392 0.5529);fill-opacity:1;"/>
<path d="M37.6884 82.6704C33.0092 78.6909 26.7897 77.6901 21.3391 79.5012C19.9384 79.9666 18.4258 79.2085 17.9604 77.8079C17.495 76.4073 18.2531 74.8946 19.6537 74.4292C26.8035 72.0535 34.9904 73.3596 41.151 78.5989C42.2753 79.5551 42.4116 81.2416 41.4554 82.3659C40.4993 83.4902 38.8127 83.6265 37.6884 82.6704Z" fill="#F70A8D" style="fill:#F70A8D;fill:color(display-p3 0.9686 0.0392 0.5529);fill-opacity:1;"/>
<path d="M79.455 66.267C77.8229 66.2079 76.5476 64.8369 76.6067 63.2047C76.6657 61.5725 78.0367 60.2973 79.6689 60.3563C81.3011 60.4154 82.5763 61.7864 82.5173 63.4186C82.4582 65.0508 81.0872 66.326 79.455 66.267Z" fill="#F70A8D" style="fill:#F70A8D;fill:color(display-p3 0.9686 0.0392 0.5529);fill-opacity:1;"/>
<path d="M28.3025 61.4568C28.2434 63.089 29.5187 64.46 31.1509 64.5191C32.783 64.5781 34.1541 63.3029 34.2131 61.6707C34.2722 60.0385 32.9969 58.6675 31.3647 58.6085C29.7326 58.5494 28.3616 59.8247 28.3025 61.4568Z" fill="#F70A8D" style="fill:#F70A8D;fill:color(display-p3 0.9686 0.0392 0.5529);fill-opacity:1;"/>
<path d="M63.4738 51.0714C63.4249 52.4221 64.4803 53.5568 65.8311 53.6056C67.1818 53.6545 68.3165 52.5991 68.3654 51.2484C68.4142 49.8976 67.3588 48.763 66.0081 48.7141C64.6573 48.6652 63.5227 49.7206 63.4738 51.0714Z" fill="#F9C23C" style="fill:#F9C23C;fill:color(display-p3 0.9765 0.7608 0.2353);fill-opacity:1;"/>
<path d="M28.4941 101.974C28.4447 103.339 29.5111 104.485 30.876 104.535C32.2408 104.584 33.3872 103.518 33.4366 102.153C33.486 100.788 32.4196 99.6415 31.0548 99.5922C29.69 99.5428 28.5435 100.609 28.4941 101.974Z" fill="#F9C23C" style="fill:#F9C23C;fill:color(display-p3 0.9765 0.7608 0.2353);fill-opacity:1;"/>
<path d="M40.1826 50.3816C40.6031 50.0397 41.121 49.8288 41.6824 49.8236C43.0609 49.797 44.195 50.8839 44.2472 52.2634C44.3241 55.0723 46.0769 60.2122 46.7539 61.9459C46.7535 61.9587 46.7594 61.9716 46.7653 61.9846C46.7712 61.9976 46.7771 62.0105 46.7767 62.0233C46.901 62.3647 47.0349 62.7017 47.1786 63.0339C47.4503 62.7179 47.7481 62.4304 48.0723 62.1722C48.8087 61.5611 49.6924 61.1084 50.7235 60.8141L50.8009 60.7914C54.2817 59.7694 57.9595 61.7647 58.9806 65.271C59.4802 66.9728 59.2883 68.7515 58.4414 70.3025C57.5944 71.8535 56.2018 72.9766 54.5 73.4762C54.3172 73.5299 54.1327 73.5613 53.9496 73.5721C52.6497 73.8732 51.4036 73.8402 50.216 73.4748C50.2759 73.8271 50.3477 74.1783 50.4313 74.528C50.7401 75.8657 49.9005 77.2129 48.5628 77.5216C47.2251 77.8303 45.8779 76.9908 45.5692 75.6531C45.0703 73.557 44.898 71.4345 45.0517 69.302C43.7864 67.5933 42.7935 65.7256 42.0726 63.7153L42.0384 63.6231C41.6073 62.4631 39.3459 56.377 39.2436 52.3629C39.2467 51.5722 39.6046 50.8454 40.1826 50.3816ZM52.0816 65.5826C51.3715 65.7911 50.6378 66.1586 50.2721 67.7521C51.4847 68.9627 52.2944 68.8641 53.0164 68.6521C53.1032 68.6266 53.1904 68.6062 53.2776 68.5905C53.6067 68.4501 53.8769 68.1908 54.0395 67.8728C54.2571 67.4981 54.2983 67.0659 54.1602 66.6527C53.9104 65.8018 53.0098 65.3101 52.1589 65.5599L52.0816 65.5826Z" fill="#00A6ED" style="fill:#00A6ED;fill:color(display-p3 0.0000 0.6510 0.9294);fill-opacity:1;"/>
<path d="M47.4393 86.7157C38.8393 83.981 29.7044 84.7474 21.6971 88.8964C20.2145 89.6846 19.6395 91.475 20.3777 92.9303C21.1404 94.412 22.9563 94.9879 24.438 94.2252C31.0145 90.8407 38.5379 90.1946 45.5995 92.4399C51.4257 94.2834 56.3447 97.9308 59.8146 102.852C61.4074 101.838 63.0567 100.674 64.686 99.355C60.4878 93.4123 54.5009 88.961 47.4393 86.7157Z" fill="#00A6ED" style="fill:#00A6ED;fill:color(display-p3 0.0000 0.6510 0.9294);fill-opacity:1;"/>
<path d="M51.741 83.8747C51.6824 85.4928 52.9467 86.852 54.5648 86.9105C56.1829 86.9691 57.5421 85.7048 57.6006 84.0867C57.6592 82.4686 56.3949 81.1094 54.7768 81.0509C53.1587 80.9923 51.7995 82.2566 51.741 83.8747Z" fill="#00A6ED" style="fill:#00A6ED;fill:color(display-p3 0.0000 0.6510 0.9294);fill-opacity:1;"/>
<path d="M156.278 32.8328C172.331 32.8328 184.527 38.2341 192.7 47.1091C200.854 55.9638 204.867 68.1266 204.867 81.4216C204.867 84.5845 204.637 87.6829 204.181 90.6882C204.622 90.9519 205.028 91.2902 205.381 91.7019C206.789 93.3443 206.912 95.6521 205.848 97.406C206.313 97.6818 206.74 98.039 207.106 98.4783C208.831 100.548 208.551 103.625 206.481 105.349L203.16 108.117C203.708 108.372 204.217 108.723 204.661 109.168C206.961 111.468 206.65 115.287 203.99 117.174C199.647 120.254 193.822 124.353 190.749 126.401C188.082 128.179 185.12 129.444 181.942 129.606C179.283 129.741 176.574 129.096 173.868 127.481C168.644 129.124 162.778 130.01 156.278 130.01C149.781 130.01 143.915 129.125 138.692 127.483C135.988 129.096 133.28 129.741 130.622 129.606C127.445 129.444 124.483 128.179 121.816 126.401C118.744 124.353 112.917 120.254 108.574 117.174C105.915 115.287 105.604 111.468 107.904 109.168C108.349 108.723 108.857 108.371 109.404 108.116L106.084 105.349C104.014 103.625 103.734 100.548 105.459 98.4783C105.825 98.0393 106.252 97.6817 106.717 97.406C105.653 95.6523 105.776 93.3442 107.184 91.7019C107.534 91.293 107.938 90.956 108.375 90.6931C107.919 87.6863 107.689 84.5861 107.689 81.4216C107.689 68.1266 111.701 55.9638 119.855 47.1091C128.029 38.2339 140.226 32.8328 156.278 32.8328Z" fill="#FF6723" stroke="white" style="fill:#FF6723;fill:color(display-p3 1.0000 0.4039 0.1373);fill-opacity:1;stroke:white;stroke-opacity:1;" stroke-width="3.03113" stroke-linecap="round"/>
<path d="M156.278 128.495C187.667 128.495 203.352 107.42 203.352 81.4219C203.352 55.4239 187.667 34.3484 156.278 34.3484C124.889 34.3484 109.205 55.4239 109.205 81.4219C109.205 107.42 124.889 128.495 156.278 128.495Z" fill="#FFB02E" style="fill:#FFB02E;fill:color(display-p3 1.0000 0.6902 0.1804);fill-opacity:1;"/>
<path d="M113.401 89.2993C112.731 90.0649 112.471 91.0485 112.602 91.9827C111.223 91.1636 109.414 91.4284 108.335 92.6879C107.126 94.0979 107.289 96.2207 108.699 97.4294L109.683 98.2724C108.567 98.1138 107.398 98.5195 106.623 99.4488C105.434 100.876 105.627 102.996 107.054 104.185L113.729 109.748L113.306 109.536C111.862 108.814 110.117 109.097 108.976 110.239C107.336 111.878 107.56 114.597 109.451 115.938C113.798 119.021 119.606 123.106 122.657 125.14C127.701 128.503 133.455 129.652 139.47 125.14C142.836 122.616 147.087 114.845 142.615 107.098C141.767 105.628 141.007 104.087 140.692 102.42C139.308 95.0899 137.244 87.5831 132.745 89.8323C130.308 91.0508 130.52 93.1524 130.822 96.1372C130.936 97.2708 131.064 98.5319 131.064 99.9202L130.798 100.053L118.146 88.9829C116.748 87.76 114.624 87.9016 113.401 89.2993Z" fill="#FF822D" style="fill:#FF822D;fill:color(display-p3 1.0000 0.5098 0.1765);fill-opacity:1;"/>
<path d="M199.164 89.2993C199.834 90.0649 200.094 91.0485 199.963 91.9827C201.342 91.1636 203.151 91.4284 204.231 92.6879C205.439 94.0979 205.276 96.2207 203.866 97.4294L202.882 98.2724C203.998 98.1138 205.168 98.5195 205.942 99.4488C207.131 100.876 206.938 102.996 205.511 104.185L198.836 109.748L199.259 109.536C200.703 108.814 202.448 109.097 203.59 110.239C205.229 111.878 205.005 114.597 203.114 115.938C198.767 119.021 192.96 123.106 189.908 125.14C184.864 128.503 179.11 129.652 173.095 125.14C169.729 122.616 165.478 114.845 169.95 107.098C170.798 105.628 171.558 104.087 171.873 102.42C173.257 95.0899 175.321 87.5831 179.82 89.8323C182.257 91.0508 182.045 93.1524 181.743 96.1372C181.629 97.2708 181.501 98.5319 181.501 99.9202L181.767 100.053L194.419 88.9829C195.817 87.76 197.941 87.9016 199.164 89.2993Z" fill="#FF822D" style="fill:#FF822D;fill:color(display-p3 1.0000 0.5098 0.1765);fill-opacity:1;"/>
<path d="M126.018 76.3816C126.018 81.0244 123.007 84.7882 119.292 84.7882C115.578 84.7882 112.567 81.0244 112.567 76.3816C112.567 71.7387 115.578 67.9749 119.292 67.9749C123.007 67.9749 126.018 71.7387 126.018 76.3816Z" fill="#FF6723" style="fill:#FF6723;fill:color(display-p3 1.0000 0.4039 0.1373);fill-opacity:1;"/>
<path d="M199.996 76.3816C199.996 81.0244 196.985 84.7882 193.271 84.7882C189.556 84.7882 186.545 81.0244 186.545 76.3816C186.545 71.7387 189.556 67.9749 193.271 67.9749C196.985 67.9749 199.996 71.7387 199.996 76.3816Z" fill="#FF6723" style="fill:#FF6723;fill:color(display-p3 1.0000 0.4039 0.1373);fill-opacity:1;"/>
<path d="M133.916 62.6368C133.213 63.4034 132.843 64.4226 132.681 65.2541C132.326 67.0771 130.561 68.2676 128.738 67.9131C126.915 67.5586 125.725 65.7934 126.079 63.9704C126.377 62.4376 127.122 60.0941 128.962 58.0892C130.903 55.9746 133.804 54.5243 137.787 54.5243C141.807 54.5243 144.721 56.0448 146.65 58.1625C148.48 60.1715 149.241 62.5072 149.507 64.0369C149.824 65.8667 148.599 67.6076 146.769 67.9253C144.939 68.2431 143.198 67.0174 142.88 65.1876C142.765 64.5238 142.412 63.4967 141.678 62.6915C141.044 61.9949 139.945 61.2496 137.787 61.2496C135.591 61.2496 134.519 61.9798 133.916 62.6368Z" fill="#402A32" style="fill:#402A32;fill:color(display-p3 0.2510 0.1647 0.1961);fill-opacity:1;"/>
<path d="M170.906 62.6368C170.203 63.4034 169.833 64.4226 169.671 65.2541C169.317 67.0771 167.551 68.2676 165.728 67.9131C163.905 67.5586 162.715 65.7934 163.069 63.9704C163.367 62.4376 164.112 60.0941 165.952 58.0892C167.893 55.9746 170.794 54.5243 174.777 54.5243C178.797 54.5243 181.711 56.0448 183.64 58.1625C185.47 60.1715 186.231 62.5072 186.497 64.0369C186.814 65.8667 185.589 67.6076 183.759 67.9253C181.929 68.2431 180.188 67.0174 179.87 65.1876C179.755 64.5238 179.402 63.4967 178.668 62.6915C178.034 61.9949 176.935 61.2496 174.777 61.2496C172.581 61.2496 171.51 61.9798 170.906 62.6368Z" fill="#402A32" style="fill:#402A32;fill:color(display-p3 0.2510 0.1647 0.1961);fill-opacity:1;"/>
<path d="M135.433 79.408C134.319 77.9222 132.211 77.6211 130.726 78.7354C129.24 79.8497 128.939 81.9574 130.053 83.4432C132.414 86.5906 140.167 93.1949 156.282 93.1949C172.396 93.1949 180.15 86.5906 182.511 83.4432C183.625 81.9574 183.324 79.8497 181.838 78.7354C180.352 77.6211 178.245 77.9222 177.13 79.408C176.128 80.744 170.431 86.4695 156.282 86.4695C142.132 86.4695 136.435 80.744 135.433 79.408Z" fill="#402A32" style="fill:#402A32;fill:color(display-p3 0.2510 0.1647 0.1961);fill-opacity:1;"/>
<mask id="path-13-outside-2_212_1274" maskUnits="userSpaceOnUse" x="219.177" y="43.9183" width="79.6256" height="76.736" fill="black">
<rect fill="white" x="219.177" y="43.9183" width="79.6256" height="76.736"/>
<path d="M232.528 117.844L236.241 116.705L237.168 114.489L243.672 114.425L250.364 112.372L251.801 109.957L258.133 109.988L264.671 107.982C269.212 106.593 270.558 100.779 267.073 97.5381L242.469 74.6274C238.984 71.3861 233.282 73.1231 232.226 77.7786L230.523 85.204L231.015 91.1672L228.821 92.6293L227.081 100.221L227.625 105.935L225.47 107.247L224.713 110.55C223.63 115.181 227.986 119.233 232.528 117.844Z"/>
<path d="M239.089 105.241C235.19 101.856 231.824 97.7317 228.803 92.7111L230.515 85.2404C234.03 92.2505 237.887 97.446 242.431 101.391C246.81 105.194 251.933 107.927 258.227 109.959L250.331 112.381C246.177 110.498 242.458 108.166 239.089 105.241Z"/>
<path d="M230.398 112.784C228.534 111.163 226.916 109.331 225.466 107.263L227.107 100.105C229.035 103.837 231.146 106.678 233.743 108.937C236.334 111.19 239.522 112.961 243.732 114.406L236.191 116.72C234.052 115.592 232.135 114.294 230.398 112.784Z"/>
<path d="M267.96 105.822C271.398 102.126 266.596 92.0957 257.251 83.4033C247.906 74.7108 237.58 70.6457 234.142 74.3415C230.705 78.0373 235.506 88.0677 244.851 96.7601C254.197 105.453 264.547 109.491 267.96 105.822Z"/>
<path d="M247.154 59.5853C250.527 65.3816 251.409 72.1354 249.679 78.6011C248.22 84.113 244.973 88.8479 240.452 92.2002C239.067 90.5922 237.861 88.9777 236.835 87.4077C240.288 84.8592 242.76 81.2494 243.883 77.0506C245.21 72.1301 244.54 67.0013 241.983 62.604C241.14 61.1549 241.635 59.3258 243.059 58.509C244.508 57.6657 246.337 58.1607 247.154 59.5853Z"/>
<path d="M274.877 82.6703C279.556 78.6909 285.776 77.69 291.226 79.5012C292.627 79.9666 294.14 79.2084 294.605 77.8078C295.07 76.4072 294.312 74.8945 292.912 74.4291C285.762 72.0534 277.575 73.3595 271.414 78.5989C270.29 79.555 270.154 81.2416 271.11 82.3659C272.066 83.4902 273.753 83.6265 274.877 82.6703Z"/>
<path d="M233.11 66.2669C234.742 66.2078 236.018 64.8368 235.959 63.2046C235.9 61.5725 234.529 60.2972 232.896 60.3563C231.264 60.4153 229.989 61.7863 230.048 63.4185C230.107 65.0507 231.478 66.326 233.11 66.2669Z"/>
<path d="M284.263 61.4567C284.322 63.0889 283.047 64.4599 281.414 64.519C279.782 64.5781 278.411 63.3028 278.352 61.6706C278.293 60.0385 279.568 58.6674 281.201 58.6084C282.833 58.5493 284.204 59.8246 284.263 61.4567Z"/>
<path d="M249.091 51.0712C249.14 52.422 248.085 53.5566 246.734 53.6055C245.383 53.6544 244.249 52.599 244.2 51.2482C244.151 49.8974 245.206 48.7628 246.557 48.7139C247.908 48.6651 249.042 49.7204 249.091 51.0712Z"/>
<path d="M284.071 101.974C284.12 103.339 283.054 104.485 281.689 104.535C280.324 104.584 279.178 103.518 279.128 102.153C279.079 100.788 280.145 99.6414 281.51 99.592C282.875 99.5426 284.022 100.609 284.071 101.974Z"/>
<path d="M272.382 50.3811C271.962 50.0392 271.444 49.8284 270.883 49.8232C269.504 49.7965 268.37 50.8835 268.318 52.2629C268.241 55.0718 266.488 60.2118 265.811 61.9455C265.811 61.9582 265.806 61.9712 265.8 61.9841C265.794 61.9971 265.788 62.0101 265.788 62.0228C265.664 62.3642 265.53 62.7013 265.386 63.0335C265.115 62.7174 264.817 62.4299 264.493 62.1718C263.756 61.5606 262.873 61.1079 261.841 60.8136L261.764 60.7909C258.283 59.7689 254.605 61.7642 253.584 65.2706C253.085 66.9723 253.277 68.7511 254.124 70.3021C254.971 71.8531 256.363 72.9761 258.065 73.4758C258.248 73.5294 258.432 73.5609 258.615 73.5717C259.915 73.8727 261.161 73.8397 262.349 73.4743C262.289 73.8267 262.217 74.1778 262.134 74.5275C261.825 75.8652 262.664 77.2124 264.002 77.5211C265.34 77.8299 266.687 76.9903 266.996 75.6526C267.495 73.5565 267.667 71.434 267.513 69.3015C268.779 67.5928 269.771 65.7251 270.492 63.7148L270.527 63.6227C270.958 62.4627 273.219 56.3766 273.321 52.3625C273.318 51.5718 272.96 50.8449 272.382 50.3811ZM260.483 65.5821C261.194 65.7906 261.927 66.1582 262.293 67.7517C261.08 68.9622 260.271 68.8636 259.549 68.6517C259.462 68.6262 259.375 68.6057 259.287 68.5901C258.958 68.4496 258.688 68.1904 258.525 67.8724C258.308 67.4976 258.267 67.0654 258.405 66.6523C258.655 65.8014 259.555 65.3096 260.406 65.5594L260.483 65.5821Z"/>
<path d="M265.126 86.7152C273.726 83.9805 282.861 84.7469 290.868 88.896C292.35 89.6841 292.925 91.4746 292.187 92.9298C291.425 94.4115 289.609 94.9874 288.127 94.2247C281.55 90.8403 274.027 90.1941 266.965 92.4394C261.139 94.2829 256.22 97.9303 252.75 102.852C251.158 101.838 249.508 100.673 247.879 99.3546C252.077 93.4119 258.064 88.9605 265.126 86.7152Z"/>
<path d="M260.824 83.8742C260.883 85.4923 259.618 86.8515 258 86.9101C256.382 86.9686 255.023 85.7044 254.964 84.0863C254.906 82.4681 256.17 81.109 257.788 81.0504C259.406 80.9918 260.765 82.2561 260.824 83.8742Z"/>
</mask>
<path d="M232.528 117.844L236.241 116.705L237.168 114.489L243.672 114.425L250.364 112.372L251.801 109.957L258.133 109.988L264.671 107.982C269.212 106.593 270.558 100.779 267.073 97.5381L242.469 74.6274C238.984 71.3861 233.282 73.1231 232.226 77.7786L230.523 85.204L231.015 91.1672L228.821 92.6293L227.081 100.221L227.625 105.935L225.47 107.247L224.713 110.55C223.63 115.181 227.986 119.233 232.528 117.844Z" stroke="white" style="stroke:white;stroke-opacity:1;" stroke-width="4.1306" mask="url(#path-13-outside-2_212_1274)"/>
<path d="M239.089 105.241C235.19 101.856 231.824 97.7317 228.803 92.7111L230.515 85.2404C234.03 92.2505 237.887 97.446 242.431 101.391C246.81 105.194 251.933 107.927 258.227 109.959L250.331 112.381C246.177 110.498 242.458 108.166 239.089 105.241Z" stroke="white" style="stroke:white;stroke-opacity:1;" stroke-width="4.1306" mask="url(#path-13-outside-2_212_1274)"/>
<path d="M230.398 112.784C228.534 111.163 226.916 109.331 225.466 107.263L227.107 100.105C229.035 103.837 231.146 106.678 233.743 108.937C236.334 111.19 239.522 112.961 243.732 114.406L236.191 116.72C234.052 115.592 232.135 114.294 230.398 112.784Z" stroke="white" style="stroke:white;stroke-opacity:1;" stroke-width="4.1306" mask="url(#path-13-outside-2_212_1274)"/>
<path d="M267.96 105.822C271.398 102.126 266.596 92.0957 257.251 83.4033C247.906 74.7108 237.58 70.6457 234.142 74.3415C230.705 78.0373 235.506 88.0677 244.851 96.7601C254.197 105.453 264.547 109.491 267.96 105.822Z" stroke="white" style="stroke:white;stroke-opacity:1;" stroke-width="4.1306" mask="url(#path-13-outside-2_212_1274)"/>
<path d="M247.154 59.5853C250.527 65.3816 251.409 72.1354 249.679 78.6011C248.22 84.113 244.973 88.8479 240.452 92.2002C239.067 90.5922 237.861 88.9777 236.835 87.4077C240.288 84.8592 242.76 81.2494 243.883 77.0506C245.21 72.1301 244.54 67.0013 241.983 62.604C241.14 61.1549 241.635 59.3258 243.059 58.509C244.508 57.6657 246.337 58.1607 247.154 59.5853Z" stroke="white" style="stroke:white;stroke-opacity:1;" stroke-width="4.1306" mask="url(#path-13-outside-2_212_1274)"/>
<path d="M274.877 82.6703C279.556 78.6909 285.776 77.69 291.226 79.5012C292.627 79.9666 294.14 79.2084 294.605 77.8078C295.07 76.4072 294.312 74.8945 292.912 74.4291C285.762 72.0534 277.575 73.3595 271.414 78.5989C270.29 79.555 270.154 81.2416 271.11 82.3659C272.066 83.4902 273.753 83.6265 274.877 82.6703Z" stroke="white" style="stroke:white;stroke-opacity:1;" stroke-width="4.1306" mask="url(#path-13-outside-2_212_1274)"/>
<path d="M233.11 66.2669C234.742 66.2078 236.018 64.8368 235.959 63.2046C235.9 61.5725 234.529 60.2972 232.896 60.3563C231.264 60.4153 229.989 61.7863 230.048 63.4185C230.107 65.0507 231.478 66.326 233.11 66.2669Z" stroke="white" style="stroke:white;stroke-opacity:1;" stroke-width="4.1306" mask="url(#path-13-outside-2_212_1274)"/>
<path d="M284.263 61.4567C284.322 63.0889 283.047 64.4599 281.414 64.519C279.782 64.5781 278.411 63.3028 278.352 61.6706C278.293 60.0385 279.568 58.6674 281.201 58.6084C282.833 58.5493 284.204 59.8246 284.263 61.4567Z" stroke="white" style="stroke:white;stroke-opacity:1;" stroke-width="4.1306" mask="url(#path-13-outside-2_212_1274)"/>
<path d="M249.091 51.0712C249.14 52.422 248.085 53.5566 246.734 53.6055C245.383 53.6544 244.249 52.599 244.2 51.2482C244.151 49.8974 245.206 48.7628 246.557 48.7139C247.908 48.6651 249.042 49.7204 249.091 51.0712Z" stroke="white" style="stroke:white;stroke-opacity:1;" stroke-width="4.1306" mask="url(#path-13-outside-2_212_1274)"/>
<path d="M284.071 101.974C284.12 103.339 283.054 104.485 281.689 104.535C280.324 104.584 279.178 103.518 279.128 102.153C279.079 100.788 280.145 99.6414 281.51 99.592C282.875 99.5426 284.022 100.609 284.071 101.974Z" stroke="white" style="stroke:white;stroke-opacity:1;" stroke-width="4.1306" mask="url(#path-13-outside-2_212_1274)"/>
<path d="M272.382 50.3811C271.962 50.0392 271.444 49.8284 270.883 49.8232C269.504 49.7965 268.37 50.8835 268.318 52.2629C268.241 55.0718 266.488 60.2118 265.811 61.9455C265.811 61.9582 265.806 61.9712 265.8 61.9841C265.794 61.9971 265.788 62.0101 265.788 62.0228C265.664 62.3642 265.53 62.7013 265.386 63.0335C265.115 62.7174 264.817 62.4299 264.493 62.1718C263.756 61.5606 262.873 61.1079 261.841 60.8136L261.764 60.7909C258.283 59.7689 254.605 61.7642 253.584 65.2706C253.085 66.9723 253.277 68.7511 254.124 70.3021C254.971 71.8531 256.363 72.9761 258.065 73.4758C258.248 73.5294 258.432 73.5609 258.615 73.5717C259.915 73.8727 261.161 73.8397 262.349 73.4743C262.289 73.8267 262.217 74.1778 262.134 74.5275C261.825 75.8652 262.664 77.2124 264.002 77.5211C265.34 77.8299 266.687 76.9903 266.996 75.6526C267.495 73.5565 267.667 71.434 267.513 69.3015C268.779 67.5928 269.771 65.7251 270.492 63.7148L270.527 63.6227C270.958 62.4627 273.219 56.3766 273.321 52.3625C273.318 51.5718 272.96 50.8449 272.382 50.3811ZM260.483 65.5821C261.194 65.7906 261.927 66.1582 262.293 67.7517C261.08 68.9622 260.271 68.8636 259.549 68.6517C259.462 68.6262 259.375 68.6057 259.287 68.5901C258.958 68.4496 258.688 68.1904 258.525 67.8724C258.308 67.4976 258.267 67.0654 258.405 66.6523C258.655 65.8014 259.555 65.3096 260.406 65.5594L260.483 65.5821Z" stroke="white" style="stroke:white;stroke-opacity:1;" stroke-width="4.1306" mask="url(#path-13-outside-2_212_1274)"/>
<path d="M265.126 86.7152C273.726 83.9805 282.861 84.7469 290.868 88.896C292.35 89.6841 292.925 91.4746 292.187 92.9298C291.425 94.4115 289.609 94.9874 288.127 94.2247C281.55 90.8403 274.027 90.1941 266.965 92.4394C261.139 94.2829 256.22 97.9303 252.75 102.852C251.158 101.838 249.508 100.673 247.879 99.3546C252.077 93.4119 258.064 88.9605 265.126 86.7152Z" stroke="white" style="stroke:white;stroke-opacity:1;" stroke-width="4.1306" mask="url(#path-13-outside-2_212_1274)"/>
<path d="M260.824 83.8742C260.883 85.4923 259.618 86.8515 258 86.9101C256.382 86.9686 255.023 85.7044 254.964 84.0863C254.906 82.4681 256.17 81.109 257.788 81.0504C259.406 80.9918 260.765 82.2561 260.824 83.8742Z" stroke="white" style="stroke:white;stroke-opacity:1;" stroke-width="4.1306" mask="url(#path-13-outside-2_212_1274)"/>
<path d="M232.528 117.844L236.241 116.705L237.168 114.489L243.672 114.425L250.364 112.372L251.801 109.957L258.133 109.988L264.671 107.982C269.212 106.593 270.558 100.779 267.074 97.5381L242.469 74.6274C238.984 71.3861 233.282 73.1231 232.226 77.7786L230.524 85.204L231.015 91.1672L228.821 92.6293L227.081 100.221L227.625 105.935L225.47 107.247L224.713 110.55C223.63 115.181 227.986 119.233 232.528 117.844Z" fill="#F9C23C" style="fill:#F9C23C;fill:color(display-p3 0.9765 0.7608 0.2353);fill-opacity:1;"/>
<path d="M239.089 105.241C235.19 101.856 231.824 97.7319 228.802 92.7113L230.515 85.2406C234.03 92.2507 237.887 97.4462 242.431 101.392C246.81 105.194 251.933 107.927 258.226 109.959L250.331 112.382C246.177 110.498 242.458 108.167 239.089 105.241Z" fill="#3F5FFF" style="fill:#3F5FFF;fill:color(display-p3 0.2471 0.3725 1.0000);fill-opacity:1;"/>
<path d="M230.398 112.784C228.534 111.163 226.916 109.331 225.466 107.264L227.107 100.105C229.035 103.837 231.145 106.678 233.743 108.937C236.334 111.19 239.522 112.961 243.732 114.406L236.191 116.72C234.051 115.592 232.135 114.294 230.398 112.784Z" fill="#3F5FFF" style="fill:#3F5FFF;fill:color(display-p3 0.2471 0.3725 1.0000);fill-opacity:1;"/>
<path d="M267.96 105.822C271.398 102.126 266.596 92.0961 257.251 83.4036C247.906 74.7112 237.58 70.646 234.143 74.3419C230.705 78.0377 235.507 88.068 244.852 96.7605C254.197 105.453 264.547 109.492 267.96 105.822Z" fill="#6D4534" style="fill:#6D4534;fill:color(display-p3 0.4275 0.2706 0.2039);fill-opacity:1;"/>
<path d="M247.154 59.5853C250.527 65.3817 251.409 72.1355 249.679 78.6011C248.22 84.1131 244.973 88.8479 240.452 92.2003C239.067 90.5923 237.861 88.9778 236.834 87.4077C240.288 84.8593 242.76 81.2495 243.883 77.0506C245.21 72.1302 244.54 67.0014 241.983 62.6041C241.14 61.155 241.635 59.3259 243.059 58.509C244.508 57.6658 246.337 58.1608 247.154 59.5853Z" fill="#F70A8D" style="fill:#F70A8D;fill:color(display-p3 0.9686 0.0392 0.5529);fill-opacity:1;"/>
<path d="M274.877 82.6704C279.556 78.6909 285.775 77.6901 291.226 79.5012C292.627 79.9666 294.139 79.2085 294.605 77.8079C295.07 76.4073 294.312 74.8946 292.911 74.4292C285.762 72.0535 277.575 73.3596 271.414 78.5989C270.29 79.5551 270.154 81.2416 271.11 82.3659C272.066 83.4902 273.752 83.6265 274.877 82.6704Z" fill="#F70A8D" style="fill:#F70A8D;fill:color(display-p3 0.9686 0.0392 0.5529);fill-opacity:1;"/>
<path d="M233.11 66.267C234.742 66.2079 236.018 64.8369 235.959 63.2047C235.899 61.5725 234.528 60.2973 232.896 60.3563C231.264 60.4154 229.989 61.7864 230.048 63.4186C230.107 65.0508 231.478 66.326 233.11 66.267Z" fill="#F70A8D" style="fill:#F70A8D;fill:color(display-p3 0.9686 0.0392 0.5529);fill-opacity:1;"/>
<path d="M284.263 61.4568C284.322 63.089 283.046 64.46 281.414 64.5191C279.782 64.5781 278.411 63.3029 278.352 61.6707C278.293 60.0385 279.568 58.6675 281.2 58.6085C282.833 58.5494 284.204 59.8247 284.263 61.4568Z" fill="#F70A8D" style="fill:#F70A8D;fill:color(display-p3 0.9686 0.0392 0.5529);fill-opacity:1;"/>
<path d="M249.091 51.0714C249.14 52.4221 248.085 53.5568 246.734 53.6056C245.383 53.6545 244.249 52.5991 244.2 51.2484C244.151 49.8976 245.206 48.763 246.557 48.7141C247.908 48.6652 249.043 49.7206 249.091 51.0714Z" fill="#F9C23C" style="fill:#F9C23C;fill:color(display-p3 0.9765 0.7608 0.2353);fill-opacity:1;"/>
<path d="M284.071 101.974C284.12 103.339 283.054 104.485 281.689 104.535C280.324 104.584 279.178 103.518 279.129 102.153C279.079 100.788 280.146 99.6415 281.51 99.5922C282.875 99.5428 284.022 100.609 284.071 101.974Z" fill="#F9C23C" style="fill:#F9C23C;fill:color(display-p3 0.9765 0.7608 0.2353);fill-opacity:1;"/>
<path d="M272.383 50.3816C271.962 50.0397 271.444 49.8288 270.883 49.8236C269.504 49.797 268.37 50.8839 268.318 52.2634C268.241 55.0723 266.488 60.2122 265.811 61.9459C265.812 61.9587 265.806 61.9716 265.8 61.9846C265.794 61.9976 265.788 62.0105 265.789 62.0233C265.664 62.3647 265.53 62.7017 265.387 63.0339C265.115 62.7179 264.817 62.4304 264.493 62.1722C263.756 61.5611 262.873 61.1084 261.842 60.8141L261.764 60.7914C258.283 59.7694 254.606 61.7647 253.585 65.271C253.085 66.9728 253.277 68.7515 254.124 70.3025C254.971 71.8535 256.363 72.9766 258.065 73.4762C258.248 73.5299 258.432 73.5613 258.616 73.5721C259.915 73.8732 261.162 73.8402 262.349 73.4748C262.289 73.8271 262.218 74.1783 262.134 74.528C261.825 75.8657 262.665 77.2129 264.002 77.5216C265.34 77.8303 266.687 76.9908 266.996 75.6531C267.495 73.557 267.667 71.4345 267.513 69.302C268.779 67.5933 269.772 65.7256 270.493 63.7153L270.527 63.6231C270.958 62.4631 273.219 56.377 273.322 52.3629C273.319 51.5722 272.961 50.8454 272.383 50.3816ZM260.484 65.5826C261.194 65.7911 261.927 66.1586 262.293 67.7521C261.08 68.9627 260.271 68.8641 259.549 68.6521C259.462 68.6266 259.375 68.6062 259.288 68.5905C258.958 68.4501 258.688 68.1908 258.526 67.8728C258.308 67.4981 258.267 67.0659 258.405 66.6527C258.655 65.8018 259.555 65.3101 260.406 65.5599L260.484 65.5826Z" fill="#00A6ED" style="fill:#00A6ED;fill:color(display-p3 0.0000 0.6510 0.9294);fill-opacity:1;"/>
<path d="M265.126 86.7157C273.726 83.981 282.861 84.7474 290.868 88.8964C292.351 89.6846 292.926 91.475 292.188 92.9303C291.425 94.412 289.609 94.9879 288.127 94.2252C281.551 90.8407 274.027 90.1946 266.966 92.4399C261.14 94.2834 256.22 97.9308 252.751 102.852C251.158 101.838 249.509 100.674 247.879 99.355C252.077 93.4123 258.064 88.961 265.126 86.7157Z" fill="#00A6ED" style="fill:#00A6ED;fill:color(display-p3 0.0000 0.6510 0.9294);fill-opacity:1;"/>
<path d="M260.824 83.8747C260.883 85.4928 259.619 86.852 258 86.9105C256.382 86.9691 255.023 85.7048 254.965 84.0867C254.906 82.4686 256.17 81.1094 257.788 81.0509C259.406 80.9923 260.766 82.2566 260.824 83.8747Z" fill="#00A6ED" style="fill:#00A6ED;fill:color(display-p3 0.0000 0.6510 0.9294);fill-opacity:1;"/>
</g>
<defs>
<clipPath id="clip0_212_1274">
<rect width="313" height="161" fill="white" style="fill:white;fill-opacity:1;" transform="translate(0 0.5)"/>
</clipPath>
</defs>
</svg>
