<svg width="313" height="162" viewBox="0 0 313 162" fill="none" xmlns="http://www.w3.org/2000/svg">
<path d="M155.996 128.242C187.5 128.242 203.242 107.09 203.242 80.9962C203.242 54.9029 187.5 33.75 155.996 33.75C124.492 33.75 108.75 54.9029 108.75 80.9962C108.75 107.09 124.492 128.242 155.996 128.242Z" fill="#402A32" style="fill:#402A32;fill:color(display-p3 0.2510 0.1647 0.1961);fill-opacity:1;"/>
<path d="M152.621 75.9311C152.621 84.32 145.821 91.1205 137.432 91.1205C129.043 91.1205 122.243 84.32 122.243 75.9311C122.243 67.5423 129.043 60.7418 137.432 60.7418C145.821 60.7418 152.621 67.5423 152.621 75.9311Z" fill="white" style="fill:white;fill-opacity:1;"/>
<path d="M159.368 75.9311C159.368 84.32 166.168 91.1205 174.557 91.1205C182.946 91.1205 189.746 84.32 189.746 75.9311C189.746 67.5423 182.946 60.7418 174.557 60.7418C166.168 60.7418 159.368 67.5423 159.368 75.9311Z" fill="white" style="fill:white;fill-opacity:1;"/>
<path d="M149.25 77.625C149.25 81.3529 146.228 84.375 142.5 84.375C138.772 84.375 135.75 81.3529 135.75 77.625C135.75 73.8971 138.772 70.875 142.5 70.875C146.228 70.875 149.25 73.8971 149.25 77.625Z" fill="#402A32" style="fill:#402A32;fill:color(display-p3 0.2510 0.1647 0.1961);fill-opacity:1;"/>
<path d="M162.75 77.625C162.75 81.3529 165.772 84.375 169.5 84.375C173.228 84.375 176.25 81.3529 176.25 77.625C176.25 73.8971 173.228 70.875 169.5 70.875C165.772 70.875 162.75 73.8971 162.75 77.625Z" fill="#402A32" style="fill:#402A32;fill:color(display-p3 0.2510 0.1647 0.1961);fill-opacity:1;"/>
<path d="M159.821 85.9241C158.232 84.0895 155.41 83.8502 153.517 85.3896L141.692 95.0058L142.689 91.5466C143.381 89.1463 141.934 86.6571 139.457 85.9868C136.967 85.3128 134.387 86.7339 133.711 89.1522L130.971 98.9458L127.644 106.704C127.583 106.847 127.529 106.992 127.482 107.138C126.296 109.355 125.625 111.883 125.625 114.566C125.625 123.342 132.807 130.457 141.667 130.457C145.564 130.457 149.137 129.08 151.917 126.79L169.752 114.075C171.843 112.584 172.263 109.719 170.683 107.722C169.994 106.853 169.042 106.295 168.019 106.073L169.714 104.695C171.695 103.084 171.953 100.222 170.291 98.3016C169.584 97.4859 168.645 96.9715 167.646 96.7733L168.167 96.35C170.148 94.7389 170.406 91.8765 168.744 89.9565C167.082 88.0366 164.128 87.7862 162.147 89.3972L160.216 90.9677C161.187 89.4224 161.087 87.387 159.821 85.9241Z" fill="#FF822D" style="fill:#FF822D;fill:color(display-p3 1.0000 0.5098 0.1765);fill-opacity:1;"/>
<path d="M138.367 50.6236C139.764 50.5765 140.858 49.4057 140.811 48.0085C140.764 46.6113 139.593 45.5168 138.196 45.5639C127.898 45.911 122.25 54.5509 122.25 61.5938C122.25 62.9917 123.383 64.125 124.781 64.125C126.179 64.125 127.312 62.9917 127.312 61.5938C127.312 56.8241 131.231 50.8641 138.367 50.6236Z" fill="#402A32" style="fill:#402A32;fill:color(display-p3 0.2510 0.1647 0.1961);fill-opacity:1;"/>
<path d="M175.321 50.6236C173.924 50.5765 172.829 49.4057 172.876 48.0085C172.924 46.6113 174.094 45.5168 175.492 45.5639C185.789 45.911 191.438 54.5509 191.438 61.5938C191.438 62.9917 190.304 64.125 188.906 64.125C187.508 64.125 186.375 62.9917 186.375 61.5938C186.375 56.8241 182.456 50.8641 175.321 50.6236Z" fill="#402A32" style="fill:#402A32;fill:color(display-p3 0.2510 0.1647 0.1961);fill-opacity:1;"/>
<path d="M155.996 32.2217C172.109 32.2217 184.353 37.6433 192.558 46.5527C200.743 55.4415 204.77 67.6508 204.771 80.9961C204.771 94.3414 200.743 106.551 192.558 115.439C184.353 124.349 172.109 129.771 155.996 129.771C154.151 129.771 152.356 129.699 150.612 129.56C147.991 131.1 144.932 131.985 141.667 131.985C134.113 131.985 127.659 127.254 125.181 120.604C123.086 119.051 121.17 117.323 119.435 115.439C111.249 106.551 107.222 94.3413 107.222 80.9961C107.222 67.6509 111.249 55.4415 119.435 46.5527C127.639 37.6433 139.883 32.2217 155.996 32.2217Z" stroke="white" style="stroke:white;stroke-opacity:1;" stroke-width="3.0566" stroke-linecap="round"/>
<path d="M155.996 128.242C187.5 128.242 203.242 107.09 203.242 80.9962C203.242 54.9029 187.5 33.75 155.996 33.75C124.492 33.75 108.75 54.9029 108.75 80.9962C108.75 107.09 124.492 128.242 155.996 128.242Z" fill="#FFB02E" style="fill:#FFB02E;fill:color(display-p3 1.0000 0.6902 0.1804);fill-opacity:1;"/>
<path d="M152.621 75.9311C152.621 84.32 145.821 91.1205 137.432 91.1205C129.043 91.1205 122.243 84.32 122.243 75.9311C122.243 67.5423 129.043 60.7418 137.432 60.7418C145.821 60.7418 152.621 67.5423 152.621 75.9311Z" fill="white" style="fill:white;fill-opacity:1;"/>
<path d="M159.368 75.9311C159.368 84.32 166.168 91.1205 174.557 91.1205C182.946 91.1205 189.746 84.32 189.746 75.9311C189.746 67.5423 182.946 60.7418 174.557 60.7418C166.168 60.7418 159.368 67.5423 159.368 75.9311Z" fill="white" style="fill:white;fill-opacity:1;"/>
<path d="M149.25 77.625C149.25 81.3529 146.228 84.375 142.5 84.375C138.772 84.375 135.75 81.3529 135.75 77.625C135.75 73.8971 138.772 70.875 142.5 70.875C146.228 70.875 149.25 73.8971 149.25 77.625Z" fill="#402A32" style="fill:#402A32;fill:color(display-p3 0.2510 0.1647 0.1961);fill-opacity:1;"/>
<path d="M162.75 77.625C162.75 81.3529 165.772 84.375 169.5 84.375C173.228 84.375 176.25 81.3529 176.25 77.625C176.25 73.8971 173.228 70.875 169.5 70.875C165.772 70.875 162.75 73.8971 162.75 77.625Z" fill="#402A32" style="fill:#402A32;fill:color(display-p3 0.2510 0.1647 0.1961);fill-opacity:1;"/>
<path d="M159.821 85.9241C158.232 84.0895 155.41 83.8502 153.517 85.3896L141.692 95.0058L142.689 91.5466C143.381 89.1463 141.934 86.6571 139.457 85.9868C136.967 85.3128 134.387 86.7339 133.711 89.1522L130.971 98.9458L127.644 106.704C127.583 106.847 127.529 106.992 127.482 107.138C126.296 109.355 125.625 111.883 125.625 114.566C125.625 123.342 132.807 130.457 141.667 130.457C145.564 130.457 149.137 129.08 151.917 126.79L169.752 114.075C171.843 112.584 172.263 109.719 170.683 107.722C169.994 106.853 169.042 106.295 168.019 106.073L169.714 104.695C171.695 103.084 171.953 100.222 170.291 98.3016C169.584 97.4859 168.645 96.9715 167.646 96.7733L168.167 96.35C170.148 94.7389 170.406 91.8765 168.744 89.9565C167.082 88.0366 164.128 87.7862 162.147 89.3972L160.216 90.9677C161.187 89.4224 161.087 87.387 159.821 85.9241Z" fill="#FF822D" style="fill:#FF822D;fill:color(display-p3 1.0000 0.5098 0.1765);fill-opacity:1;"/>
<path d="M138.367 50.6236C139.764 50.5765 140.858 49.4057 140.811 48.0085C140.764 46.6113 139.593 45.5169 138.196 45.564C127.898 45.9111 122.25 54.5509 122.25 61.5938C122.25 62.9917 123.383 64.125 124.781 64.125C126.179 64.125 127.313 62.9917 127.313 61.5938C127.313 56.8242 131.231 50.8641 138.367 50.6236Z" fill="#402A32" style="fill:#402A32;fill:color(display-p3 0.2510 0.1647 0.1961);fill-opacity:1;"/>
<path d="M175.321 50.6236C173.924 50.5765 172.829 49.4057 172.876 48.0085C172.924 46.6113 174.094 45.5169 175.492 45.564C185.789 45.9111 191.438 54.5509 191.438 61.5938C191.438 62.9917 190.304 64.125 188.906 64.125C187.508 64.125 186.375 62.9917 186.375 61.5938C186.375 56.8242 182.456 50.8641 175.321 50.6236Z" fill="#402A32" style="fill:#402A32;fill:color(display-p3 0.2510 0.1647 0.1961);fill-opacity:1;"/>
</svg>
