<svg width="313" height="162" viewBox="0 0 313 162" fill="none" xmlns="http://www.w3.org/2000/svg">
<path d="M156.996 128.242C188.5 128.242 204.242 107.09 204.242 80.9962C204.242 54.9029 188.5 33.75 156.996 33.75C125.492 33.75 109.75 54.9029 109.75 80.9962C109.75 107.09 125.492 128.242 156.996 128.242Z" fill="#402A32" style="fill:#402A32;fill:color(display-p3 0.2510 0.1647 0.1961);fill-opacity:1;"/>
<path d="M136.75 99.5625V89.2327C136.75 86.5499 134.575 84.375 131.892 84.375C129.055 84.375 126.812 86.7985 126.771 89.6358C126.704 94.2307 126.068 100.31 123.25 101.25C113.124 104.625 109.75 119.813 118.187 126.562C124.938 131.963 131.687 131.625 136.75 131.625H146.078C148.382 131.625 150.25 129.757 150.25 127.453C150.25 125.873 149.357 124.429 147.944 123.722L146.875 123.188H149.302C150.851 123.188 152.201 122.133 152.577 120.631L152.806 119.712C153.222 118.049 151.964 116.438 150.25 116.438L151.361 115.882C152.748 115.188 153.625 113.77 153.625 112.219C153.625 110.667 152.748 109.249 151.361 108.555L150.25 108H156.156C158.486 108 160.375 106.111 160.375 103.781C160.375 101.451 158.486 99.5625 156.156 99.5625H136.75Z" fill="#402A32" style="fill:#402A32;fill:color(display-p3 0.2510 0.1647 0.1961);fill-opacity:1;"/>
<path d="M138.164 81.7575C146.004 81.7575 152.36 75.4021 152.36 67.5623C152.36 59.7226 146.004 53.3672 138.164 53.3672C130.325 53.3672 123.969 59.7226 123.969 67.5623C123.969 75.4021 130.325 81.7575 138.164 81.7575Z" fill="#FFB02E" style="fill:#FFB02E;fill:color(display-p3 1.0000 0.6902 0.1804);fill-opacity:1;"/>
<path d="M175.793 82.0163C183.704 82.0163 190.117 75.603 190.117 67.6917C190.117 59.7805 183.704 53.3672 175.793 53.3672C167.882 53.3672 161.468 59.7805 161.468 67.6917C161.468 75.603 167.882 82.0163 175.793 82.0163Z" fill="#FFB02E" style="fill:#FFB02E;fill:color(display-p3 1.0000 0.6902 0.1804);fill-opacity:1;"/>
<path d="M136.75 99.5625V89.2327C136.75 86.5499 134.575 84.375 131.892 84.375C129.055 84.375 126.812 86.7985 126.771 89.6358C126.704 94.2307 126.068 100.31 123.25 101.25C113.124 104.625 109.75 119.813 118.187 126.562C124.938 131.963 131.687 131.625 136.75 131.625H146.078C148.382 131.625 150.25 129.757 150.25 127.453C150.25 125.873 149.357 124.429 147.944 123.722L146.875 123.188H149.302C150.851 123.188 152.201 122.133 152.577 120.631L152.806 119.712C153.222 118.049 151.964 116.438 150.25 116.438L151.361 115.882C152.748 115.188 153.625 113.77 153.625 112.219C153.625 110.667 152.748 109.249 151.361 108.555L150.25 108H156.156C158.486 108 160.375 106.111 160.375 103.781C160.375 101.451 158.486 99.5625 156.156 99.5625H136.75Z" fill="#402A32" style="fill:#402A32;fill:color(display-p3 0.2510 0.1647 0.1961);fill-opacity:1;"/>
<path d="M127.119 40.9943C128.459 39.6546 132.127 37.125 136.75 37.125C141.373 37.125 145.041 39.6546 146.381 40.9943C147.04 41.6533 147.04 42.7217 146.381 43.3807C145.722 44.0398 144.653 44.0398 143.994 43.3807C143.084 42.4704 140.227 40.5 136.75 40.5C133.273 40.5 130.416 42.4704 129.506 43.3807C128.847 44.0398 127.778 44.0398 127.119 43.3807C126.46 42.7217 126.46 41.6533 127.119 40.9943Z" fill="#402A32" style="fill:#402A32;fill:color(display-p3 0.2510 0.1647 0.1961);fill-opacity:1;"/>
<path d="M164.357 54.3911C165.946 53.0674 170.231 50.625 175.562 50.625C180.894 50.625 185.179 53.0674 186.768 54.3911C187.484 54.9878 187.581 56.0518 186.984 56.7678C186.387 57.4838 185.323 57.5805 184.607 56.9839C183.496 56.0576 179.951 54 175.562 54C171.174 54 167.629 56.0576 166.518 56.9839C165.802 57.5805 164.738 57.4838 164.141 56.7678C163.544 56.0518 163.641 54.9878 164.357 54.3911Z" fill="#402A32" style="fill:#402A32;fill:color(display-p3 0.2510 0.1647 0.1961);fill-opacity:1;"/>
<path d="M146.875 65.8125C146.875 71.4044 142.342 75.9375 136.75 75.9375C131.158 75.9375 126.625 71.4044 126.625 65.8125C126.625 60.2206 131.158 55.6875 136.75 55.6875C142.342 55.6875 146.875 60.2206 146.875 65.8125Z" fill="#402A32" style="fill:#402A32;fill:color(display-p3 0.2510 0.1647 0.1961);fill-opacity:1;"/>
<path d="M184 65.8125C184 71.4044 179.467 75.9375 173.875 75.9375C168.283 75.9375 163.75 71.4044 163.75 65.8125C163.75 60.2206 168.283 55.6875 173.875 55.6875C179.467 55.6875 184 60.2206 184 65.8125Z" fill="#402A32" style="fill:#402A32;fill:color(display-p3 0.2510 0.1647 0.1961);fill-opacity:1;"/>
<path d="M157.275 91.0769C153.326 90.4017 150.459 92.3137 149.261 93.5115C147.943 94.8295 145.806 94.8295 144.488 93.5114C143.17 92.1934 143.171 90.0565 144.489 88.7385C146.666 86.5614 151.617 83.2617 158.412 84.4234C165.038 85.556 168.449 89.3382 170.186 93.0787C170.971 94.7693 170.237 96.7762 168.546 97.5611C166.856 98.3461 164.849 97.6119 164.064 95.9213C163.116 93.8808 161.394 91.7811 157.275 91.0769Z" fill="#402A32" style="fill:#402A32;fill:color(display-p3 0.2510 0.1647 0.1961);fill-opacity:1;"/>
<path d="M156.996 32.0625C173.147 32.0625 185.436 37.4984 193.675 46.4453C201.893 55.3694 205.93 67.6198 205.93 80.9961C205.93 94.3726 201.893 106.624 193.675 115.548C185.436 124.495 173.147 129.93 156.996 129.93C155.106 129.93 153.27 129.854 151.486 129.708C150.603 131.824 148.515 133.312 146.078 133.312H136.75C131.747 133.312 124.404 133.697 117.133 127.88C112.301 124.014 110.955 117.819 112.105 112.297C112.498 110.414 113.188 108.566 114.156 106.873C110.079 99.3248 108.062 90.4421 108.062 80.9961C108.063 67.6197 112.1 55.3694 120.318 46.4453C121.739 44.903 123.279 43.4644 124.938 42.1406C124.95 41.2926 125.279 40.4479 125.926 39.8008C127.479 38.2471 131.552 35.4375 136.75 35.4375C136.79 35.4375 136.83 35.4381 136.87 35.4385C142.719 33.253 149.434 32.0625 156.996 32.0625Z" stroke="white" style="stroke:white;stroke-opacity:1;" stroke-width="3.375" stroke-linecap="round" stroke-linejoin="round"/>
<path d="M156.996 128.242C188.5 128.242 204.242 107.09 204.242 80.9962C204.242 54.9029 188.5 33.75 156.996 33.75C125.492 33.75 109.75 54.9029 109.75 80.9962C109.75 107.09 125.492 128.242 156.996 128.242Z" fill="#FFB02E" style="fill:#FFB02E;fill:color(display-p3 1.0000 0.6902 0.1804);fill-opacity:1;"/>
<path d="M136.75 99.5625V89.2327C136.75 86.5499 134.575 84.375 131.892 84.375C129.055 84.375 126.812 86.7985 126.771 89.6358C126.704 94.2307 126.069 100.31 123.25 101.25C113.125 104.625 109.75 119.813 118.187 126.562C124.938 131.963 131.687 131.625 136.75 131.625H146.078C148.382 131.625 150.25 129.757 150.25 127.453C150.25 125.873 149.357 124.429 147.944 123.722L146.875 123.188H149.302C150.851 123.188 152.201 122.133 152.577 120.631L152.806 119.712C153.222 118.049 151.964 116.438 150.25 116.438L151.361 115.882C152.748 115.188 153.625 113.77 153.625 112.219C153.625 110.667 152.748 109.249 151.361 108.555L150.25 108H156.156C158.486 108 160.375 106.111 160.375 103.781C160.375 101.451 158.486 99.5625 156.156 99.5625H136.75Z" fill="#FFB02E" style="fill:#FFB02E;fill:color(display-p3 1.0000 0.6902 0.1804);fill-opacity:1;"/>
<path d="M138.164 81.7575C146.004 81.7575 152.36 75.4021 152.36 67.5623C152.36 59.7226 146.004 53.3672 138.164 53.3672C130.325 53.3672 123.969 59.7226 123.969 67.5623C123.969 75.4021 130.325 81.7575 138.164 81.7575Z" fill="white" style="fill:white;fill-opacity:1;"/>
<path d="M175.793 82.0163C183.704 82.0163 190.117 75.603 190.117 67.6917C190.117 59.7805 183.704 53.3672 175.793 53.3672C167.882 53.3672 161.468 59.7805 161.468 67.6917C161.468 75.603 167.882 82.0163 175.793 82.0163Z" fill="white" style="fill:white;fill-opacity:1;"/>
<path d="M136.75 99.5625V89.2327C136.75 86.5499 134.575 84.375 131.892 84.375C129.055 84.375 126.812 86.7985 126.771 89.6358C126.704 94.2307 126.069 100.31 123.25 101.25C113.125 104.625 109.75 119.813 118.187 126.562C124.938 131.963 131.687 131.625 136.75 131.625H146.078C148.382 131.625 150.25 129.757 150.25 127.453C150.25 125.873 149.357 124.429 147.944 123.722L146.875 123.188H149.302C150.851 123.188 152.201 122.133 152.577 120.631L152.806 119.712C153.222 118.049 151.964 116.438 150.25 116.438L151.361 115.882C152.748 115.188 153.625 113.77 153.625 112.219C153.625 110.667 152.748 109.249 151.361 108.555L150.25 108H156.156C158.486 108 160.375 106.111 160.375 103.781C160.375 101.451 158.486 99.5625 156.156 99.5625H136.75Z" fill="#FF822D" style="fill:#FF822D;fill:color(display-p3 1.0000 0.5098 0.1765);fill-opacity:1;"/>
<path d="M127.119 40.9943C128.459 39.6546 132.127 37.125 136.75 37.125C141.373 37.125 145.041 39.6546 146.381 40.9943C147.04 41.6533 147.04 42.7217 146.381 43.3807C145.722 44.0398 144.653 44.0398 143.994 43.3807C143.084 42.4704 140.227 40.5 136.75 40.5C133.273 40.5 130.416 42.4704 129.506 43.3807C128.847 44.0398 127.778 44.0398 127.119 43.3807C126.46 42.7217 126.46 41.6533 127.119 40.9943Z" fill="#402A32" style="fill:#402A32;fill:color(display-p3 0.2510 0.1647 0.1961);fill-opacity:1;"/>
<path d="M164.357 54.3911C165.946 53.0674 170.231 50.625 175.562 50.625C180.894 50.625 185.179 53.0674 186.768 54.3911C187.484 54.9878 187.581 56.0518 186.984 56.7678C186.387 57.4838 185.323 57.5805 184.607 56.9839C183.496 56.0576 179.951 54 175.562 54C171.174 54 167.629 56.0576 166.518 56.9839C165.802 57.5805 164.738 57.4838 164.141 56.7678C163.544 56.0518 163.641 54.9878 164.357 54.3911Z" fill="#402A32" style="fill:#402A32;fill:color(display-p3 0.2510 0.1647 0.1961);fill-opacity:1;"/>
<path d="M146.875 65.8125C146.875 71.4044 142.342 75.9375 136.75 75.9375C131.158 75.9375 126.625 71.4044 126.625 65.8125C126.625 60.2206 131.158 55.6875 136.75 55.6875C142.342 55.6875 146.875 60.2206 146.875 65.8125Z" fill="#402A32" style="fill:#402A32;fill:color(display-p3 0.2510 0.1647 0.1961);fill-opacity:1;"/>
<path d="M184 65.8125C184 71.4044 179.467 75.9375 173.875 75.9375C168.283 75.9375 163.75 71.4044 163.75 65.8125C163.75 60.2206 168.283 55.6875 173.875 55.6875C179.467 55.6875 184 60.2206 184 65.8125Z" fill="#402A32" style="fill:#402A32;fill:color(display-p3 0.2510 0.1647 0.1961);fill-opacity:1;"/>
<path d="M157.275 91.0769C153.326 90.4017 150.459 92.3137 149.261 93.5115C147.943 94.8295 145.806 94.8295 144.488 93.5114C143.17 92.1934 143.171 90.0565 144.489 88.7385C146.666 86.5614 151.617 83.2617 158.412 84.4234C165.038 85.556 168.449 89.3382 170.186 93.0787C170.971 94.7693 170.237 96.7762 168.546 97.5611C166.856 98.3461 164.849 97.6119 164.064 95.9213C163.116 93.8808 161.394 91.7811 157.275 91.0769Z" fill="#402A32" style="fill:#402A32;fill:color(display-p3 0.2510 0.1647 0.1961);fill-opacity:1;"/>
</svg>
